<?xml version="1.0" encoding="utf-8"?>
<!-- Generator: Adobe Illustrator 23.0.0, SVG Export Plug-In . SVG Version: 6.00 Build 0)  -->
<svg version="1.1" id="Layer_1" xmlns="http://www.w3.org/2000/svg" xmlns:xlink="http://www.w3.org/1999/xlink" x="0px" y="0px"
	 viewBox="0 0 625.2 601.6" style="enable-background:new 0 0 625.2 601.6;" xml:space="preserve">
<g>
	<defs>
		<path id="SVGID_1_" d="M436.3,577.3c-38,15.8-79.5,23.8-124.8,23.8c-44.4,0-85.6-7.8-123.7-23.2c-38.1-15.4-71-36.6-98.5-63.4
			c-27.6-27.1-49.3-58.5-65.1-94.8C8.5,383.5,0.6,344.5,0.6,303v-2.2c0-41.6,7.9-80.5,23.7-116.8c15.8-36.2,37.7-67.9,65.6-95.2
			c28-27.2,61-48.7,99-64.4c38-16,79.7-23.8,124.9-23.8c44.3,0,85.6,7.7,123.7,23.2c38.1,15.4,70.8,36.6,98.5,63.5
			c27.6,26.8,49.3,58.4,65,94.6c15.9,36.2,23.7,75.1,23.7,116.7v2.2c0,41.7-7.8,80.5-23.7,116.8c-15.8,36.2-37.6,67.9-65.6,95.3
			C507.4,540.1,474.4,561.6,436.3,577.3z M423.5,413.8c12.8-14.4,22.7-31,29.6-50.1c6.7-19,10.2-39.2,10.2-60.7v-2.2
			c0-21.5-3.5-41.8-10.7-60.8c-7.2-19-17.5-35.9-31.2-50.5c-13.6-14.8-29.7-26.5-48.4-35c-18.7-8.6-39.2-13-61.4-13
			c-23.7,0-44.7,4.1-62.9,12.3c-18.3,8.3-33.8,19.6-46.7,33.9c-13,14.4-22.9,31.1-29.7,50c-6.8,19.1-10.2,39.3-10.2,60.8v2.2
			c0,21.6,3.5,41.8,10.8,60.9c7.1,19,17.6,35.7,31.1,50.5c13.8,14.7,29.7,26.3,48,35c18.4,8.6,38.9,13,62,13
			c23.6,0,44.6-4.1,62.8-12.5C394.9,439.4,410.5,428.1,423.5,413.8z"/>
	</defs>
	<clipPath id="SVGID_2_">
		<use xlink:href="#SVGID_1_"  style="overflow:visible;"/>
	</clipPath>
	<use xlink:href="#SVGID_1_"  style="overflow:visible;fill:none;stroke:#FFFFFF;stroke-width:1.1335;stroke-miterlimit:10;"/>
</g>
</svg>
