<?xml version="1.0" encoding="utf-8"?>
<!-- Generator: Adobe Illustrator 23.0.0, SVG Export Plug-In . SVG Version: 6.00 Build 0)  -->
<svg version="1.1" id="Layer_1" xmlns="http://www.w3.org/2000/svg" xmlns:xlink="http://www.w3.org/1999/xlink" x="0px" y="0px"
	 viewBox="0 0 589.5 567.2" style="enable-background:new 0 0 589.5 567.2;" xml:space="preserve">
<g>
	<g>
		<defs>
			<path id="SVGID_1_" d="M411.2,543.9c-35.8,14.8-74.9,22.4-117.5,22.4c-41.8,0-80.6-7.3-116.4-21.8
				c-35.8-14.5-66.8-34.4-92.7-59.7c-26-25.5-46.4-55.1-61.3-89.2C8.4,361.5,1,324.8,1,285.6v-2c0-39.2,7.4-75.8,22.3-109.9
				C38.2,139.6,58.7,109.8,85,84c26.4-25.6,57.5-45.9,93.2-60.6C214,8.3,253.2,1,295.8,1c41.7,0,80.6,7.3,116.5,21.8
				c35.8,14.5,66.6,34.5,92.7,59.8c26,25.3,46.4,55,61.2,89.1c14.9,34.1,22.3,70.7,22.3,109.9v2c0,39.2-7.3,75.8-22.3,109.9
				c-14.8,34-35.4,63.9-61.7,89.7C478.1,508.9,447,529.1,411.2,543.9z M399.1,390c12.1-13.5,21.4-29.2,27.8-47.1
				c6.3-17.9,9.6-36.9,9.6-57.2v-2c0-20.2-3.3-39.4-10.1-57.2c-6.8-17.9-16.5-33.8-29.4-47.5c-12.8-14-28-24.9-45.5-32.9
				c-17.6-8.1-36.9-12.2-57.8-12.2c-22.3,0-42,3.8-59.2,11.6c-17.2,7.8-31.9,18.5-44,31.9c-12.3,13.5-21.5,29.3-27.9,47.1
				c-6.4,18-9.6,37-9.6,57.3v2c0,20.3,3.3,39.3,10.1,57.3c6.7,17.9,16.6,33.6,29.3,47.5c13,13.9,27.9,24.8,45.2,32.9
				c17.3,8.1,36.7,12.3,58.3,12.3c22.2,0,42-3.9,59.1-11.7C372.2,414.1,386.9,403.5,399.1,390z"/>
		</defs>
		<clipPath id="SVGID_2_">
			<use xlink:href="#SVGID_1_"  style="overflow:visible;"/>
		</clipPath>
		<linearGradient id="SVGID_3_" gradientUnits="userSpaceOnUse" x1="0" y1="283.6232" x2="589.4623" y2="283.6232">
			<stop  offset="2.955670e-02" style="stop-color:#48B1AB"/>
			<stop  offset="1" style="stop-color:#51AD9B"/>
		</linearGradient>
		<use xlink:href="#SVGID_1_"  style="overflow:visible;fill:none;stroke:url(#SVGID_3_);stroke-width:2;stroke-miterlimit:10;"/>
	</g>
</g>
</svg>
