<?xml version="1.0" encoding="utf-8"?>
<!-- Generator: Adobe Illustrator 23.0.0, SVG Export Plug-In . SVG Version: 6.00 Build 0)  -->
<svg version="1.1" id="Layer_1" xmlns="http://www.w3.org/2000/svg" xmlns:xlink="http://www.w3.org/1999/xlink" x="0px" y="0px"
	 viewBox="0 0 152.5 39.4" style="enable-background:new 0 0 152.5 39.4;" xml:space="preserve">
<style type="text/css">
	.st0{fill:url(#SVGID_1_);}
	.st1{fill:url(#SVGID_2_);}
	.st2{fill:url(#SVGID_3_);}
	.st3{fill:url(#SVGID_4_);}
	.st4{fill:url(#SVGID_5_);}
	.st5{fill:url(#SVGID_6_);}
	.st6{fill:url(#SVGID_7_);}
	.st7{fill:url(#SVGID_8_);}
	.st8{fill:url(#SVGID_9_);}
	.st9{fill:url(#SVGID_10_);}
	.st10{fill:url(#SVGID_11_);}
	.st11{fill:url(#SVGID_12_);}
	.st12{fill:url(#SVGID_13_);}
	.st13{fill:url(#SVGID_14_);}
	.st14{fill:url(#SVGID_15_);}
	.st15{fill:url(#SVGID_16_);}
	.st16{fill:url(#SVGID_17_);}
	.st17{fill:url(#SVGID_18_);}
	.st18{fill:url(#SVGID_19_);}
	.st19{fill:url(#SVGID_20_);}
	.st20{fill:url(#SVGID_21_);}
	.st21{fill:url(#SVGID_22_);}
	.st22{fill:url(#SVGID_23_);}
	.st23{fill:url(#SVGID_24_);}
	.st24{fill:url(#SVGID_25_);}
	.st25{fill:url(#SVGID_26_);}
	.st26{fill:url(#SVGID_27_);}
	.st27{fill:url(#SVGID_28_);}
	.st28{fill:url(#SVGID_29_);}
	.st29{fill:url(#SVGID_30_);}
</style>
<g>
	<linearGradient id="SVGID_1_" gradientUnits="userSpaceOnUse" x1="55.0829" y1="15.7667" x2="69.4659" y2="15.7667">
		<stop  offset="2.955670e-02" style="stop-color:#48B1AB"/>
		<stop  offset="1" style="stop-color:#51AD9B"/>
	</linearGradient>
	<path class="st0" d="M55.1,5.6h4.2v10.8l4.9-5.4h5l-5.7,5.8l5.8,9h-4.8l-3.9-6.1l-1.5,1.6v4.5h-4.2V5.6z"/>
	<linearGradient id="SVGID_2_" gradientUnits="userSpaceOnUse" x1="70.2704" y1="18.4808" x2="92.8019" y2="18.4808">
		<stop  offset="2.955670e-02" style="stop-color:#48B1AB"/>
		<stop  offset="1" style="stop-color:#51AD9B"/>
	</linearGradient>
	<path class="st1" d="M70.3,11h4.3l2.4,9l2.8-9.1h3.6l2.8,9.1l2.4-9h4.2l-4.6,15h-3.8l-2.9-9.1L78.6,26h-3.8L70.3,11z"/>
	<linearGradient id="SVGID_3_" gradientUnits="userSpaceOnUse" x1="94.6308" y1="18.4816" x2="110.7053" y2="18.4816">
		<stop  offset="2.955670e-02" style="stop-color:#48B1AB"/>
		<stop  offset="1" style="stop-color:#51AD9B"/>
	</linearGradient>
	<path class="st2" d="M102.6,26.2c-1.1,0-2.2-0.2-3.2-0.6c-1-0.4-1.8-0.9-2.5-1.6c-0.7-0.7-1.3-1.5-1.7-2.4c-0.4-0.9-0.6-1.9-0.6-3
		v-0.1c0-1.1,0.2-2.1,0.6-3c0.4-0.9,1-1.8,1.7-2.5c0.7-0.7,1.6-1.3,2.5-1.7c1-0.4,2.1-0.6,3.2-0.6c1.1,0,2.2,0.2,3.2,0.6
		c1,0.4,1.8,0.9,2.5,1.6c0.7,0.7,1.3,1.5,1.7,2.4c0.4,0.9,0.6,1.9,0.6,3v0.1c0,1.1-0.2,2.1-0.6,3c-0.4,0.9-1,1.7-1.7,2.5
		c-0.7,0.7-1.6,1.3-2.5,1.7C104.9,26,103.8,26.2,102.6,26.2z M102.7,22.6c0.6,0,1.1-0.1,1.6-0.3c0.5-0.2,0.9-0.5,1.2-0.9
		c0.3-0.4,0.6-0.8,0.8-1.3c0.2-0.5,0.3-1,0.3-1.6v-0.1c0-0.6-0.1-1.1-0.3-1.6c-0.2-0.5-0.5-0.9-0.8-1.3c-0.3-0.4-0.8-0.7-1.2-0.9
		c-0.5-0.2-1-0.3-1.6-0.3c-0.6,0-1.1,0.1-1.6,0.3c-0.5,0.2-0.9,0.5-1.2,0.9c-0.3,0.4-0.6,0.8-0.8,1.3c-0.2,0.5-0.3,1-0.3,1.6v0.1
		c0,0.6,0.1,1.1,0.3,1.6c0.2,0.5,0.5,0.9,0.8,1.3c0.3,0.4,0.8,0.7,1.2,0.9C101.6,22.5,102.1,22.6,102.7,22.6z"/>
	<linearGradient id="SVGID_4_" gradientUnits="userSpaceOnUse" x1="113.7541" y1="18.3135" x2="122.7062" y2="18.3135">
		<stop  offset="2.955670e-02" style="stop-color:#48B1AB"/>
		<stop  offset="1" style="stop-color:#51AD9B"/>
	</linearGradient>
	<path class="st3" d="M113.8,11h4.2v3c0.4-1,1-1.8,1.7-2.4c0.7-0.6,1.7-0.9,3-0.8v4.4h-0.2c-1.4,0-2.5,0.4-3.3,1.3
		c-0.8,0.9-1.2,2.2-1.2,4v5.5h-4.2V11z"/>
	<linearGradient id="SVGID_5_" gradientUnits="userSpaceOnUse" x1="125.3412" y1="15.7667" x2="139.7243" y2="15.7667">
		<stop  offset="2.955670e-02" style="stop-color:#48B1AB"/>
		<stop  offset="1" style="stop-color:#51AD9B"/>
	</linearGradient>
	<path class="st4" d="M125.3,5.6h4.2v10.8l4.9-5.4h5l-5.7,5.8l5.8,9h-4.8l-3.9-6.1l-1.5,1.6v4.5h-4.2V5.6z"/>
	<g>
		<g>
			<linearGradient id="SVGID_6_" gradientUnits="userSpaceOnUse" x1="0.4579" y1="35.7548" x2="5.8232" y2="35.7548">
				<stop  offset="2.955670e-02" style="stop-color:#48B1AB"/>
				<stop  offset="1" style="stop-color:#51AD9B"/>
			</linearGradient>
			<path class="st5" d="M0.5,32.2h5.4v1.4H2v1.5h3.4v1.4H2v2.7H0.5V32.2z"/>
			<linearGradient id="SVGID_7_" gradientUnits="userSpaceOnUse" x1="6.7502" y1="35.756" x2="14.2382" y2="35.756">
				<stop  offset="2.955670e-02" style="stop-color:#48B1AB"/>
				<stop  offset="1" style="stop-color:#51AD9B"/>
			</linearGradient>
			<path class="st6" d="M10.5,39.4c-0.5,0-1-0.1-1.5-0.3c-0.5-0.2-0.9-0.5-1.2-0.8C7.5,38,7.2,37.6,7,37.2c-0.2-0.4-0.3-0.9-0.3-1.4
				v0c0-0.5,0.1-1,0.3-1.4c0.2-0.4,0.4-0.8,0.8-1.2c0.3-0.3,0.7-0.6,1.2-0.8c0.5-0.2,1-0.3,1.5-0.3c0.5,0,1,0.1,1.5,0.3
				c0.5,0.2,0.8,0.5,1.2,0.8c0.3,0.3,0.6,0.7,0.8,1.1c0.2,0.4,0.3,0.9,0.3,1.4v0c0,0.5-0.1,1-0.3,1.4c-0.2,0.4-0.4,0.8-0.8,1.2
				c-0.3,0.3-0.7,0.6-1.2,0.8C11.5,39.3,11,39.4,10.5,39.4z M10.5,38c0.3,0,0.6-0.1,0.9-0.2c0.3-0.1,0.5-0.3,0.7-0.5
				c0.2-0.2,0.3-0.4,0.4-0.7c0.1-0.3,0.2-0.5,0.2-0.8v0c0-0.3-0.1-0.6-0.2-0.9c-0.1-0.3-0.2-0.5-0.4-0.7c-0.2-0.2-0.4-0.4-0.7-0.5
				c-0.3-0.1-0.5-0.2-0.9-0.2c-0.3,0-0.6,0.1-0.9,0.2C9.4,33.8,9.1,34,9,34.2c-0.2,0.2-0.3,0.4-0.4,0.7c-0.1,0.3-0.2,0.5-0.2,0.9v0
				c0,0.3,0.1,0.6,0.2,0.9c0.1,0.3,0.3,0.5,0.4,0.7c0.2,0.2,0.4,0.4,0.7,0.5C9.9,37.9,10.2,38,10.5,38z"/>
			<linearGradient id="SVGID_8_" gradientUnits="userSpaceOnUse" x1="15.6174" y1="35.7548" x2="21.7087" y2="35.7548">
				<stop  offset="2.955670e-02" style="stop-color:#48B1AB"/>
				<stop  offset="1" style="stop-color:#51AD9B"/>
			</linearGradient>
			<path class="st7" d="M15.6,32.2h3.2c0.9,0,1.6,0.2,2.1,0.7c0.4,0.4,0.6,0.9,0.6,1.6v0c0,0.6-0.1,1-0.4,1.4
				c-0.3,0.4-0.6,0.6-1.1,0.8l1.7,2.5h-1.8L18.4,37h0h-1.2v2.3h-1.6V32.2z M18.7,35.7c0.4,0,0.7-0.1,0.9-0.3
				c0.2-0.2,0.3-0.4,0.3-0.7v0c0-0.3-0.1-0.6-0.3-0.8c-0.2-0.2-0.5-0.3-0.9-0.3h-1.5v2H18.7z"/>
			<linearGradient id="SVGID_9_" gradientUnits="userSpaceOnUse" x1="25.3098" y1="35.7308" x2="32.7795" y2="35.7308">
				<stop  offset="2.955670e-02" style="stop-color:#48B1AB"/>
				<stop  offset="1" style="stop-color:#51AD9B"/>
			</linearGradient>
			<path class="st8" d="M28.3,32.2h1.4l3,7.1h-1.6l-0.6-1.6h-3l-0.6,1.6h-1.6L28.3,32.2z M30,36.3L29,34l-0.9,2.3H30z"/>
			<linearGradient id="SVGID_10_" gradientUnits="userSpaceOnUse" x1="33.5552" y1="35.756" x2="40.0579" y2="35.756">
				<stop  offset="2.955670e-02" style="stop-color:#48B1AB"/>
				<stop  offset="1" style="stop-color:#51AD9B"/>
			</linearGradient>
			<path class="st9" d="M37.2,39.4c-0.5,0-1-0.1-1.4-0.3c-0.4-0.2-0.8-0.4-1.1-0.8c-0.3-0.3-0.6-0.7-0.8-1.2
				c-0.2-0.4-0.3-0.9-0.3-1.4v0c0-0.5,0.1-1,0.3-1.4c0.2-0.4,0.4-0.8,0.8-1.2c0.3-0.3,0.7-0.6,1.2-0.8c0.4-0.2,0.9-0.3,1.5-0.3
				c0.3,0,0.6,0,0.9,0.1c0.3,0.1,0.5,0.1,0.7,0.2c0.2,0.1,0.4,0.2,0.6,0.3c0.2,0.1,0.4,0.3,0.5,0.4l-1,1.1c-0.3-0.2-0.6-0.4-0.8-0.6
				c-0.3-0.1-0.6-0.2-1-0.2c-0.3,0-0.6,0.1-0.8,0.2c-0.3,0.1-0.5,0.3-0.6,0.5c-0.2,0.2-0.3,0.4-0.4,0.7c-0.1,0.3-0.2,0.5-0.2,0.9v0
				c0,0.3,0,0.6,0.2,0.9c0.1,0.3,0.2,0.5,0.4,0.7c0.2,0.2,0.4,0.4,0.6,0.5c0.3,0.1,0.5,0.2,0.8,0.2c0.4,0,0.7-0.1,1-0.2
				c0.3-0.1,0.6-0.3,0.8-0.6l1,1c-0.2,0.2-0.4,0.4-0.6,0.5c-0.2,0.2-0.4,0.3-0.6,0.4c-0.2,0.1-0.5,0.2-0.8,0.3
				C37.8,39.4,37.5,39.4,37.2,39.4z"/>
			<linearGradient id="SVGID_11_" gradientUnits="userSpaceOnUse" x1="40.9824" y1="35.756" x2="47.4836" y2="35.756">
				<stop  offset="2.955670e-02" style="stop-color:#48B1AB"/>
				<stop  offset="1" style="stop-color:#51AD9B"/>
			</linearGradient>
			<path class="st10" d="M44.6,39.4c-0.5,0-1-0.1-1.4-0.3c-0.4-0.2-0.8-0.4-1.1-0.8c-0.3-0.3-0.6-0.7-0.8-1.2
				c-0.2-0.4-0.3-0.9-0.3-1.4v0c0-0.5,0.1-1,0.3-1.4c0.2-0.4,0.4-0.8,0.8-1.2c0.3-0.3,0.7-0.6,1.2-0.8c0.5-0.2,0.9-0.3,1.5-0.3
				c0.3,0,0.6,0,0.9,0.1c0.3,0.1,0.5,0.1,0.7,0.2c0.2,0.1,0.4,0.2,0.6,0.3c0.2,0.1,0.4,0.3,0.5,0.4l-1,1.1c-0.3-0.2-0.6-0.4-0.8-0.6
				c-0.3-0.1-0.6-0.2-1-0.2c-0.3,0-0.6,0.1-0.8,0.2c-0.3,0.1-0.5,0.3-0.6,0.5c-0.2,0.2-0.3,0.4-0.4,0.7c-0.1,0.3-0.2,0.5-0.2,0.9v0
				c0,0.3,0.1,0.6,0.2,0.9c0.1,0.3,0.2,0.5,0.4,0.7c0.2,0.2,0.4,0.4,0.6,0.5c0.3,0.1,0.5,0.2,0.8,0.2c0.4,0,0.7-0.1,1-0.2
				c0.3-0.1,0.6-0.3,0.8-0.6l1,1c-0.2,0.2-0.4,0.4-0.6,0.5c-0.2,0.2-0.4,0.3-0.6,0.4c-0.2,0.1-0.5,0.2-0.8,0.3
				C45.2,39.4,44.9,39.4,44.6,39.4z"/>
			<linearGradient id="SVGID_12_" gradientUnits="userSpaceOnUse" x1="48.4096" y1="35.756" x2="55.8986" y2="35.756">
				<stop  offset="2.955670e-02" style="stop-color:#48B1AB"/>
				<stop  offset="1" style="stop-color:#51AD9B"/>
			</linearGradient>
			<path class="st11" d="M52.1,39.4c-0.5,0-1-0.1-1.5-0.3c-0.5-0.2-0.9-0.5-1.2-0.8c-0.3-0.3-0.6-0.7-0.8-1.1
				c-0.2-0.4-0.3-0.9-0.3-1.4v0c0-0.5,0.1-1,0.3-1.4c0.2-0.4,0.4-0.8,0.8-1.2c0.3-0.3,0.7-0.6,1.2-0.8c0.5-0.2,1-0.3,1.5-0.3
				c0.5,0,1,0.1,1.5,0.3c0.5,0.2,0.9,0.5,1.2,0.8c0.3,0.3,0.6,0.7,0.8,1.1c0.2,0.4,0.3,0.9,0.3,1.4v0c0,0.5-0.1,1-0.3,1.4
				c-0.2,0.4-0.5,0.8-0.8,1.2c-0.3,0.3-0.7,0.6-1.2,0.8C53.2,39.3,52.7,39.4,52.1,39.4z M52.2,38c0.3,0,0.6-0.1,0.9-0.2
				c0.3-0.1,0.5-0.3,0.7-0.5c0.2-0.2,0.3-0.4,0.4-0.7c0.1-0.3,0.2-0.5,0.2-0.8v0c0-0.3-0.1-0.6-0.2-0.9c-0.1-0.3-0.3-0.5-0.4-0.7
				c-0.2-0.2-0.4-0.4-0.7-0.5c-0.3-0.1-0.5-0.2-0.9-0.2c-0.3,0-0.6,0.1-0.9,0.2c-0.3,0.1-0.5,0.3-0.7,0.5c-0.2,0.2-0.3,0.4-0.4,0.7
				S50,35.4,50,35.7v0c0,0.3,0.1,0.6,0.2,0.9c0.1,0.3,0.3,0.5,0.4,0.7c0.2,0.2,0.4,0.4,0.7,0.5C51.6,37.9,51.8,38,52.2,38z"/>
			<linearGradient id="SVGID_13_" gradientUnits="userSpaceOnUse" x1="57.168" y1="35.8108" x2="63.3066" y2="35.8108">
				<stop  offset="2.955670e-02" style="stop-color:#48B1AB"/>
				<stop  offset="1" style="stop-color:#51AD9B"/>
			</linearGradient>
			<path class="st12" d="M60.2,39.4c-0.9,0-1.7-0.3-2.2-0.8c-0.5-0.5-0.8-1.3-0.8-2.3v-4h1.5v4c0,0.6,0.1,1,0.4,1.3
				c0.3,0.3,0.6,0.4,1.1,0.4c0.5,0,0.9-0.1,1.1-0.4c0.3-0.3,0.4-0.7,0.4-1.3v-4h1.5v4c0,0.5-0.1,1-0.2,1.4c-0.1,0.4-0.4,0.7-0.6,1
				c-0.3,0.3-0.6,0.5-1,0.6C61.1,39.3,60.7,39.4,60.2,39.4z"/>
			<linearGradient id="SVGID_14_" gradientUnits="userSpaceOnUse" x1="64.8882" y1="35.7548" x2="71.1493" y2="35.7548">
				<stop  offset="2.955670e-02" style="stop-color:#48B1AB"/>
				<stop  offset="1" style="stop-color:#51AD9B"/>
			</linearGradient>
			<path class="st13" d="M64.9,32.2h1.4l3.3,4.3v-4.3h1.5v7h-1.3l-3.4-4.5v4.5h-1.5V32.2z"/>
			<linearGradient id="SVGID_15_" gradientUnits="userSpaceOnUse" x1="72.3355" y1="35.7548" x2="78.1739" y2="35.7548">
				<stop  offset="2.955670e-02" style="stop-color:#48B1AB"/>
				<stop  offset="1" style="stop-color:#51AD9B"/>
			</linearGradient>
			<path class="st14" d="M74.5,33.7h-2.1v-1.4h5.8v1.4H76v5.6h-1.5V33.7z"/>
			<linearGradient id="SVGID_16_" gradientUnits="userSpaceOnUse" x1="79.4338" y1="35.7548" x2="80.9835" y2="35.7548">
				<stop  offset="2.955670e-02" style="stop-color:#48B1AB"/>
				<stop  offset="1" style="stop-color:#51AD9B"/>
			</linearGradient>
			<path class="st15" d="M79.4,32.2H81v7h-1.5V32.2z"/>
			<linearGradient id="SVGID_17_" gradientUnits="userSpaceOnUse" x1="82.7436" y1="35.7548" x2="89.0038" y2="35.7548">
				<stop  offset="2.955670e-02" style="stop-color:#48B1AB"/>
				<stop  offset="1" style="stop-color:#51AD9B"/>
			</linearGradient>
			<path class="st16" d="M82.7,32.2h1.4l3.3,4.3v-4.3H89v7h-1.3l-3.4-4.5v4.5h-1.5V32.2z"/>
			<linearGradient id="SVGID_18_" gradientUnits="userSpaceOnUse" x1="90.3829" y1="35.756" x2="97.0978" y2="35.756">
				<stop  offset="2.955670e-02" style="stop-color:#48B1AB"/>
				<stop  offset="1" style="stop-color:#51AD9B"/>
			</linearGradient>
			<path class="st17" d="M94.1,39.4c-0.5,0-1.1-0.1-1.5-0.3c-0.5-0.2-0.8-0.4-1.2-0.8c-0.3-0.3-0.6-0.7-0.8-1.1
				c-0.2-0.4-0.3-0.9-0.3-1.4v0c0-0.5,0.1-1,0.3-1.4c0.2-0.4,0.4-0.8,0.8-1.2c0.3-0.3,0.7-0.6,1.2-0.8c0.5-0.2,0.9-0.3,1.5-0.3
				c0.3,0,0.6,0,0.9,0.1c0.3,0,0.5,0.1,0.7,0.2c0.2,0.1,0.4,0.2,0.6,0.3c0.2,0.1,0.4,0.3,0.6,0.4l-1,1.2c-0.1-0.1-0.3-0.2-0.4-0.3
				c-0.1-0.1-0.3-0.2-0.4-0.2c-0.1-0.1-0.3-0.1-0.5-0.1c-0.2,0-0.4,0-0.6,0c-0.3,0-0.5,0.1-0.8,0.2c-0.2,0.1-0.5,0.3-0.6,0.5
				c-0.2,0.2-0.3,0.4-0.4,0.7c-0.1,0.3-0.2,0.5-0.2,0.9v0c0,0.3,0.1,0.6,0.2,0.9c0.1,0.3,0.3,0.5,0.4,0.7c0.2,0.2,0.4,0.4,0.7,0.5
				c0.3,0.1,0.5,0.2,0.9,0.2c0.6,0,1.1-0.1,1.5-0.4v-1H94v-1.3h3.1v3.1c-0.4,0.3-0.8,0.6-1.3,0.8C95.3,39.3,94.7,39.4,94.1,39.4z"/>
			<linearGradient id="SVGID_19_" gradientUnits="userSpaceOnUse" x1="101.6075" y1="35.7548" x2="107.6972" y2="35.7548">
				<stop  offset="2.955670e-02" style="stop-color:#48B1AB"/>
				<stop  offset="1" style="stop-color:#51AD9B"/>
			</linearGradient>
			<path class="st18" d="M101.6,32.2h3.2c0.9,0,1.6,0.2,2.1,0.7c0.4,0.4,0.6,0.9,0.6,1.6v0c0,0.6-0.1,1-0.4,1.4
				c-0.3,0.4-0.6,0.6-1.1,0.8l1.7,2.5h-1.8l-1.5-2.3h0h-1.2v2.3h-1.5V32.2z M104.7,35.7c0.4,0,0.7-0.1,0.9-0.3
				c0.2-0.2,0.3-0.4,0.3-0.7v0c0-0.3-0.1-0.6-0.3-0.8c-0.2-0.2-0.5-0.3-0.9-0.3h-1.5v2H104.7z"/>
			<linearGradient id="SVGID_20_" gradientUnits="userSpaceOnUse" x1="108.8842" y1="35.7548" x2="114.2383" y2="35.7548">
				<stop  offset="2.955670e-02" style="stop-color:#48B1AB"/>
				<stop  offset="1" style="stop-color:#51AD9B"/>
			</linearGradient>
			<path class="st19" d="M108.9,32.2h5.3v1.4h-3.8V35h3.3v1.4h-3.3v1.5h3.8v1.4h-5.4V32.2z"/>
			<linearGradient id="SVGID_21_" gradientUnits="userSpaceOnUse" x1="115.3158" y1="35.756" x2="121.8185" y2="35.756">
				<stop  offset="2.955670e-02" style="stop-color:#48B1AB"/>
				<stop  offset="1" style="stop-color:#51AD9B"/>
			</linearGradient>
			<path class="st20" d="M118.9,39.4c-0.5,0-1-0.1-1.4-0.3c-0.4-0.2-0.8-0.4-1.1-0.8c-0.3-0.3-0.6-0.7-0.8-1.2
				c-0.2-0.4-0.3-0.9-0.3-1.4v0c0-0.5,0.1-1,0.3-1.4c0.2-0.4,0.4-0.8,0.8-1.2c0.3-0.3,0.7-0.6,1.2-0.8c0.4-0.2,0.9-0.3,1.5-0.3
				c0.3,0,0.6,0,0.9,0.1c0.3,0.1,0.5,0.1,0.7,0.2c0.2,0.1,0.4,0.2,0.6,0.3c0.2,0.1,0.4,0.3,0.5,0.4l-1,1.1c-0.3-0.2-0.6-0.4-0.8-0.6
				c-0.3-0.1-0.6-0.2-1-0.2c-0.3,0-0.6,0.1-0.8,0.2c-0.3,0.1-0.5,0.3-0.6,0.5c-0.2,0.2-0.3,0.4-0.4,0.7c-0.1,0.3-0.2,0.5-0.2,0.9v0
				c0,0.3,0.1,0.6,0.2,0.9c0.1,0.3,0.2,0.5,0.4,0.7c0.2,0.2,0.4,0.4,0.6,0.5c0.3,0.1,0.5,0.2,0.8,0.2c0.4,0,0.7-0.1,1-0.2
				c0.3-0.1,0.6-0.3,0.8-0.6l1,1c-0.2,0.2-0.4,0.4-0.6,0.5c-0.2,0.2-0.4,0.3-0.6,0.4c-0.2,0.1-0.5,0.2-0.8,0.3
				C119.6,39.4,119.3,39.4,118.9,39.4z"/>
			<linearGradient id="SVGID_22_" gradientUnits="userSpaceOnUse" x1="122.7422" y1="35.756" x2="130.2335" y2="35.756">
				<stop  offset="2.955670e-02" style="stop-color:#48B1AB"/>
				<stop  offset="1" style="stop-color:#51AD9B"/>
			</linearGradient>
			<path class="st21" d="M126.5,39.4c-0.5,0-1-0.1-1.5-0.3c-0.5-0.2-0.8-0.5-1.2-0.8c-0.3-0.3-0.6-0.7-0.8-1.1
				c-0.2-0.4-0.3-0.9-0.3-1.4v0c0-0.5,0.1-1,0.3-1.4c0.2-0.4,0.4-0.8,0.8-1.2c0.3-0.3,0.7-0.6,1.2-0.8c0.5-0.2,1-0.3,1.5-0.3
				c0.5,0,1,0.1,1.5,0.3c0.5,0.2,0.9,0.5,1.2,0.8c0.3,0.3,0.6,0.7,0.8,1.1c0.2,0.4,0.3,0.9,0.3,1.4v0c0,0.5-0.1,1-0.3,1.4
				c-0.2,0.4-0.4,0.8-0.8,1.2c-0.3,0.3-0.7,0.6-1.2,0.8C127.5,39.3,127,39.4,126.5,39.4z M126.5,38c0.3,0,0.6-0.1,0.9-0.2
				c0.3-0.1,0.5-0.3,0.7-0.5c0.2-0.2,0.3-0.4,0.4-0.7c0.1-0.3,0.2-0.5,0.2-0.8v0c0-0.3-0.1-0.6-0.2-0.9c-0.1-0.3-0.3-0.5-0.4-0.7
				c-0.2-0.2-0.4-0.4-0.7-0.5c-0.3-0.1-0.5-0.2-0.9-0.2c-0.3,0-0.6,0.1-0.9,0.2c-0.3,0.1-0.5,0.3-0.7,0.5c-0.2,0.2-0.3,0.4-0.4,0.7
				c-0.1,0.3-0.2,0.5-0.2,0.9v0c0,0.3,0.1,0.6,0.2,0.9c0.1,0.3,0.3,0.5,0.4,0.7c0.2,0.2,0.4,0.4,0.7,0.5
				C125.9,37.9,126.2,38,126.5,38z"/>
			<linearGradient id="SVGID_23_" gradientUnits="userSpaceOnUse" x1="131.6118" y1="35.7548" x2="137.7007" y2="35.7548">
				<stop  offset="2.955670e-02" style="stop-color:#48B1AB"/>
				<stop  offset="1" style="stop-color:#51AD9B"/>
			</linearGradient>
			<path class="st22" d="M131.6,32.2h3.2c0.9,0,1.6,0.2,2.1,0.7c0.4,0.4,0.6,0.9,0.6,1.6v0c0,0.6-0.1,1-0.4,1.4
				c-0.3,0.4-0.6,0.6-1.1,0.8l1.7,2.5h-1.8l-1.5-2.3h0h-1.2v2.3h-1.5V32.2z M134.7,35.7c0.4,0,0.7-0.1,0.9-0.3
				c0.2-0.2,0.3-0.4,0.3-0.7v0c0-0.3-0.1-0.6-0.3-0.8c-0.2-0.2-0.5-0.3-0.9-0.3h-1.5v2H134.7z"/>
			<linearGradient id="SVGID_24_" gradientUnits="userSpaceOnUse" x1="138.8902" y1="35.7548" x2="145.3802" y2="35.7548">
				<stop  offset="2.955670e-02" style="stop-color:#48B1AB"/>
				<stop  offset="1" style="stop-color:#51AD9B"/>
			</linearGradient>
			<path class="st23" d="M138.9,32.2h2.7c0.6,0,1.1,0.1,1.5,0.3c0.5,0.2,0.9,0.4,1.2,0.7c0.3,0.3,0.6,0.7,0.8,1.1
				c0.2,0.4,0.3,0.9,0.3,1.4v0c0,0.5-0.1,1-0.3,1.4c-0.2,0.4-0.4,0.8-0.8,1.1c-0.3,0.3-0.7,0.6-1.2,0.7c-0.5,0.2-1,0.3-1.5,0.3h-2.7
				V32.2z M141.6,37.9c0.3,0,0.6,0,0.9-0.2c0.3-0.1,0.5-0.2,0.7-0.4c0.2-0.2,0.3-0.4,0.4-0.7c0.1-0.3,0.2-0.5,0.2-0.9v0
				c0-0.3-0.1-0.6-0.2-0.9c-0.1-0.3-0.2-0.5-0.4-0.7c-0.2-0.2-0.4-0.3-0.7-0.4c-0.3-0.1-0.6-0.2-0.9-0.2h-1.2v4.2H141.6z"/>
			<linearGradient id="SVGID_25_" gradientUnits="userSpaceOnUse" x1="146.2879" y1="35.7551" x2="151.8524" y2="35.7551">
				<stop  offset="2.955670e-02" style="stop-color:#48B1AB"/>
				<stop  offset="1" style="stop-color:#51AD9B"/>
			</linearGradient>
			<path class="st24" d="M149.3,39.4c-0.5,0-1.1-0.1-1.6-0.3c-0.5-0.2-1-0.5-1.4-0.8l0.9-1.1c0.3,0.3,0.7,0.5,1,0.6
				c0.3,0.2,0.7,0.2,1.1,0.2c0.3,0,0.6-0.1,0.7-0.2c0.2-0.1,0.3-0.3,0.3-0.5v0c0-0.1,0-0.2-0.1-0.3c0-0.1-0.1-0.1-0.2-0.2
				c-0.1-0.1-0.2-0.1-0.4-0.2c-0.2-0.1-0.4-0.1-0.7-0.2c-0.4-0.1-0.7-0.2-1-0.3c-0.3-0.1-0.5-0.2-0.7-0.4c-0.2-0.2-0.4-0.4-0.5-0.6
				c-0.1-0.2-0.2-0.5-0.2-0.9v0c0-0.3,0.1-0.6,0.2-0.9c0.1-0.3,0.3-0.5,0.5-0.7c0.2-0.2,0.5-0.3,0.8-0.4c0.3-0.1,0.6-0.2,1-0.2
				c0.5,0,1,0.1,1.4,0.2c0.4,0.2,0.8,0.4,1.2,0.7l-0.8,1.2c-0.3-0.2-0.6-0.4-0.9-0.5c-0.3-0.1-0.6-0.2-0.9-0.2
				c-0.3,0-0.5,0.1-0.7,0.2c-0.2,0.1-0.2,0.3-0.2,0.4v0c0,0.1,0,0.2,0.1,0.3c0,0.1,0.1,0.2,0.2,0.2c0.1,0.1,0.3,0.1,0.5,0.2
				c0.2,0.1,0.4,0.1,0.8,0.2c0.4,0.1,0.7,0.2,1,0.3c0.3,0.1,0.5,0.3,0.7,0.4c0.2,0.2,0.3,0.4,0.4,0.6c0.1,0.2,0.1,0.5,0.1,0.8v0
				c0,0.3-0.1,0.7-0.2,0.9c-0.1,0.3-0.3,0.5-0.5,0.7c-0.2,0.2-0.5,0.3-0.8,0.4C150,39.3,149.7,39.4,149.3,39.4z"/>
		</g>
	</g>
	<g>
		<g>
			<g>
				<linearGradient id="SVGID_26_" gradientUnits="userSpaceOnUse" x1="26.352" y1="15.4572" x2="42.396" y2="15.4572">
					<stop  offset="2.955670e-02" style="stop-color:#48B1AB"/>
					<stop  offset="1" style="stop-color:#51AD9B"/>
				</linearGradient>
				<polygon class="st25" points="40.5,4.9 26.4,25.8 28.1,26 42.4,4.9 				"/>
			</g>
			<g>
				<g>
					<linearGradient id="SVGID_27_" gradientUnits="userSpaceOnUse" x1="17.849" y1="7.7329" x2="33.9225" y2="7.7329">
						<stop  offset="2.955670e-02" style="stop-color:#48B1AB"/>
						<stop  offset="1" style="stop-color:#51AD9B"/>
					</linearGradient>
					<path class="st26" d="M31.6,13.2c0.7-0.7,1.3-1.5,1.7-2.5c0.4-0.9,0.6-1.9,0.6-3V7.7c0-1.1-0.2-2.1-0.6-3
						c-0.4-0.9-1-1.7-1.7-2.4c-0.7-0.7-1.6-1.2-2.5-1.6c-1-0.4-2-0.6-3.2-0.6c-1.2,0-2.2,0.2-3.2,0.6c-1,0.4-1.8,1-2.5,1.7
						c-0.7,0.7-1.3,1.5-1.7,2.5c-0.4,0.9-0.6,1.9-0.6,3v0.1c0,1.1,0.2,2.1,0.6,3c0.4,0.9,1,1.7,1.7,2.4c0.7,0.7,1.6,1.2,2.5,1.6
						c1,0.4,2,0.6,3.2,0.6c1.2,0,2.2-0.2,3.2-0.6C30.1,14.4,30.9,13.9,31.6,13.2z M27.5,11.5c-0.5,0.2-1,0.3-1.6,0.3
						c-0.6,0-1.1-0.1-1.6-0.3c-0.5-0.2-0.9-0.5-1.2-0.9c-0.3-0.4-0.6-0.8-0.8-1.3c-0.2-0.5-0.3-1-0.3-1.6V7.7c0-0.6,0.1-1.1,0.3-1.6
						c0.2-0.5,0.4-0.9,0.8-1.3c0.3-0.4,0.7-0.7,1.2-0.9c0.5-0.2,1-0.3,1.6-0.3c0.6,0,1.1,0.1,1.6,0.3c0.5,0.2,0.9,0.5,1.2,0.9
						c0.4,0.4,0.6,0.8,0.8,1.3c0.2,0.5,0.3,1,0.3,1.6v0.1c0,0.6-0.1,1.1-0.3,1.6c-0.2,0.5-0.4,0.9-0.8,1.3
						C28.4,11,28,11.3,27.5,11.5z"/>
				</g>
			</g>
			<g>
				<g>
					<linearGradient id="SVGID_28_" gradientUnits="userSpaceOnUse" x1="36.4063" y1="21.7446" x2="52.4799" y2="21.7446">
						<stop  offset="2.955670e-02" style="stop-color:#48B1AB"/>
						<stop  offset="1" style="stop-color:#51AD9B"/>
					</linearGradient>
					<path class="st27" d="M51.9,18.7c-0.4-0.9-1-1.8-1.7-2.4c-0.7-0.7-1.6-1.2-2.5-1.6c-1-0.4-2-0.6-3.2-0.6
						c-1.2,0-2.2,0.2-3.2,0.6c-1,0.4-1.8,1-2.5,1.7C38,17,37.4,17.8,37,18.7c-0.4,0.9-0.6,1.9-0.6,3v0.1c0,1.1,0.2,2.1,0.6,3
						c0.4,0.9,1,1.7,1.7,2.4c0.7,0.7,1.6,1.2,2.5,1.6c1,0.4,2,0.6,3.2,0.6c1.2,0,2.2-0.2,3.2-0.6c1-0.4,1.8-1,2.6-1.7
						c0.7-0.7,1.3-1.5,1.7-2.5c0.4-0.9,0.6-1.9,0.6-3v-0.1C52.5,20.6,52.3,19.6,51.9,18.7z M48.3,21.8c0,0.6-0.1,1.1-0.3,1.6
						c-0.2,0.5-0.4,0.9-0.8,1.3c-0.3,0.4-0.7,0.7-1.2,0.9c-0.5,0.2-1,0.3-1.6,0.3c-0.6,0-1.1-0.1-1.6-0.3c-0.5-0.2-0.9-0.5-1.2-0.9
						c-0.4-0.4-0.6-0.8-0.8-1.3c-0.2-0.5-0.3-1-0.3-1.6v-0.1c0-0.6,0.1-1.1,0.3-1.6c0.2-0.5,0.4-0.9,0.8-1.3
						c0.3-0.4,0.7-0.7,1.2-0.9c0.5-0.2,1-0.3,1.6-0.3c0.6,0,1.1,0.1,1.6,0.3c0.5,0.2,0.9,0.5,1.2,0.9c0.4,0.4,0.6,0.8,0.8,1.3
						C48.2,20.7,48.3,21.2,48.3,21.8L48.3,21.8z"/>
				</g>
			</g>
		</g>
	</g>
	<g>
		<linearGradient id="SVGID_29_" gradientUnits="userSpaceOnUse" x1="140.6143" y1="18.243" x2="152.4873" y2="18.243">
			<stop  offset="2.955670e-02" style="stop-color:#48B1AB"/>
			<stop  offset="1" style="stop-color:#51AD9B"/>
		</linearGradient>
		<path class="st28" d="M146.9,25.8c-1,0-2.1-0.2-3.2-0.5c-1.1-0.4-2.1-0.9-3.1-1.7l1.8-2.7c0.8,0.6,1.6,1,2.4,1.3
			c0.8,0.3,1.5,0.4,2.2,0.4c0.6,0,1-0.1,1.3-0.3c0.3-0.2,0.4-0.5,0.4-0.8v-0.1c0-0.2-0.1-0.4-0.2-0.6c-0.2-0.2-0.4-0.3-0.7-0.4
			c-0.3-0.1-0.6-0.2-1-0.3c-0.4-0.1-0.7-0.2-1.1-0.4c-0.5-0.1-1-0.3-1.5-0.5c-0.5-0.2-1-0.5-1.4-0.8c-0.4-0.3-0.8-0.8-1-1.2
			c-0.3-0.5-0.4-1.1-0.4-1.8v-0.1c0-0.7,0.1-1.4,0.4-2c0.3-0.6,0.7-1.1,1.1-1.5c0.5-0.4,1-0.7,1.7-0.9c0.6-0.2,1.3-0.3,2.1-0.3
			c0.9,0,1.9,0.2,2.8,0.5c1,0.3,1.8,0.7,2.6,1.2l-1.6,2.9c-0.7-0.4-1.4-0.7-2.1-1c-0.7-0.2-1.3-0.4-1.8-0.4c-0.5,0-0.9,0.1-1.1,0.3
			c-0.3,0.2-0.4,0.4-0.4,0.7v0.1c0,0.2,0.1,0.4,0.2,0.5c0.2,0.2,0.4,0.3,0.7,0.4c0.3,0.1,0.6,0.3,0.9,0.4c0.4,0.1,0.7,0.3,1.1,0.4
			c0.5,0.2,1,0.4,1.6,0.6c0.5,0.2,1,0.5,1.4,0.8c0.4,0.3,0.8,0.7,1,1.2c0.3,0.5,0.4,1,0.4,1.7v0.1c0,0.8-0.1,1.5-0.4,2.1
			c-0.3,0.6-0.7,1.1-1.2,1.5c-0.5,0.4-1.1,0.7-1.8,0.9C148.4,25.7,147.7,25.8,146.9,25.8z"/>
	</g>
	<g>
		<g>
			<linearGradient id="SVGID_30_" gradientUnits="userSpaceOnUse" x1="0" y1="16.297" x2="16.8349" y2="16.297">
				<stop  offset="2.955670e-02" style="stop-color:#48B1AB"/>
				<stop  offset="1" style="stop-color:#51AD9B"/>
			</linearGradient>
			<path class="st29" d="M0,6.4h9.2c2.3,0,4,0.6,5.2,1.8c0.9,0.9,1.4,2,1.4,3.4v0.1c0,0.6-0.1,1.1-0.2,1.5c-0.1,0.4-0.3,0.8-0.6,1.2
				c-0.2,0.3-0.5,0.7-0.8,0.9c-0.3,0.3-0.6,0.5-1,0.7c1.1,0.4,2.1,1,2.7,1.8c0.7,0.7,1,1.8,1,3.1v0.1c0,0.9-0.2,1.7-0.5,2.4
				c-0.3,0.7-0.8,1.2-1.5,1.7c-0.7,0.5-1.4,0.8-2.4,1c-0.9,0.2-1.9,0.3-3,0.3H0V6.4z M8.3,14.4c1,0,1.7-0.2,2.3-0.5
				c0.6-0.3,0.9-0.9,0.9-1.6v-0.1c0-0.7-0.2-1.2-0.7-1.5c-0.5-0.4-1.2-0.5-2.1-0.5H4.3v4.2H8.3z M9.4,22.4c1,0,1.7-0.2,2.3-0.5
				c0.5-0.4,0.8-0.9,0.8-1.6v-0.1c0-0.7-0.3-1.2-0.8-1.6c-0.5-0.4-1.3-0.6-2.5-0.6h-5v4.4H9.4z"/>
		</g>
	</g>
</g>
</svg>
