<?xml version="1.0" encoding="utf-8"?>
<!-- Generator: Adobe Illustrator 23.0.0, SVG Export Plug-In . SVG Version: 6.00 Build 0)  -->
<svg version="1.1" id="Layer_1" xmlns="http://www.w3.org/2000/svg" xmlns:xlink="http://www.w3.org/1999/xlink" x="0px" y="0px"
	 viewBox="0 0 1315.1 607.7" style="enable-background:new 0 0 1315.1 607.7;" xml:space="preserve">
<style type="text/css">
	.st0{opacity:5.000000e-02;}
	.st1{opacity:0.5;}
	.st2{fill:#FFFFFF;}
	.st3{fill:none;}
	.st4{font-family:'GothamBold';}
	.st5{font-size:23px;}
</style>
<g class="st0">
	<g>
		<g class="st1">
			<polygon class="st2" points="1285.9,448.5 1295.4,448.5 1295.4,401.1 1296.4,401.1 1296.4,448.5 1305.9,448.5 1305.9,497.5 
				1296.4,497.5 1296.4,521.1 1295.4,521.1 1295.4,497.5 1285.9,497.5 			"/>
			<polygon class="st2" points="1263.5,436.1 1264.5,436.1 1264.5,466.3 1274,466.3 1274,479.7 1264.5,479.7 1264.5,556 1263.5,556 
				1263.5,479.7 1254,479.7 1254,466.3 1263.5,466.3 			"/>
			<polygon class="st2" points="1231.6,405.7 1232.5,405.7 1232.5,470.8 1242.1,470.8 1242.1,475.2 1232.5,475.2 1232.5,501.6 
				1231.6,501.6 1231.6,475.2 1222.1,475.2 1222.1,470.8 1231.6,470.8 			"/>
			<polygon class="st2" points="1199.7,427.9 1200.6,427.9 1200.6,451.5 1210.2,451.5 1210.2,494.6 1200.6,494.6 1200.6,547.9 
				1199.7,547.9 1199.7,494.6 1190.1,494.6 1190.1,451.5 1199.7,451.5 			"/>
			<polygon class="st2" points="1167.8,393 1168.7,393 1168.7,457.4 1178.2,457.4 1178.2,488.6 1168.7,488.6 1168.7,512.9 
				1167.8,512.9 1167.8,488.6 1158.2,488.6 1158.2,457.4 1167.8,457.4 			"/>
			<polygon class="st2" points="1135.8,399 1136.8,399 1136.8,426.5 1146.3,426.5 1146.3,428.8 1136.8,428.8 1136.8,487.5 
				1135.8,487.5 1135.8,428.8 1126.3,428.8 1126.3,426.5 1135.8,426.5 			"/>
			<polygon class="st2" points="1103.9,318.6 1104.9,318.6 1104.9,383.8 1114.4,383.8 1114.4,422.5 1104.9,422.5 1104.9,438.6 
				1103.9,438.6 1103.9,422.5 1094.4,422.5 1094.4,383.8 1103.9,383.8 			"/>
			<polygon class="st2" points="1072,331.3 1073,331.3 1073,393.8 1082.5,393.8 1082.5,412.4 1073,412.4 1073,433.4 1072,433.4 
				1072,412.4 1062.5,412.4 1062.5,393.8 1072,393.8 			"/>
			<polygon class="st2" points="1040.1,361 1041,361 1041,400.9 1050.6,400.9 1050.6,405.4 1041,405.4 1041,480.9 1040.1,480.9 
				1040.1,405.4 1030.6,405.4 1030.6,400.9 1040.1,400.9 			"/>
			<polygon class="st2" points="1008.2,394.4 1009.1,394.4 1009.1,420.2 1018.7,420.2 1018.7,461.9 1009.1,461.9 1009.1,514.4 
				1008.2,514.4 1008.2,461.9 998.6,461.9 998.6,420.2 1008.2,420.2 			"/>
			<polygon class="st2" points="976.3,394.4 977.2,394.4 977.2,456.7 986.7,456.7 986.7,480.5 977.2,480.5 977.2,514.4 976.3,514.4 
				976.3,480.5 966.7,480.5 966.7,456.7 976.3,456.7 			"/>
			<polygon class="st2" points="944.3,428.7 945.3,428.7 945.3,457.6 954.8,457.6 954.8,541.9 945.3,541.9 945.3,548.6 944.3,548.6 
				944.3,541.9 934.8,541.9 934.8,457.6 944.3,457.6 			"/>
			<polygon class="st2" points="912.4,394.4 913.4,394.4 913.4,421.7 922.9,421.7 922.9,452.9 913.4,452.9 913.4,514.4 912.4,514.4 
				912.4,452.9 902.9,452.9 902.9,421.7 912.4,421.7 			"/>
			<polygon class="st2" points="880.5,378.8 881.5,378.8 881.5,429.9 891,429.9 891,479 881.5,479 881.5,498.8 880.5,498.8 
				880.5,479 871,479 871,429.9 880.5,429.9 			"/>
			<polygon class="st2" points="848.6,315.6 849.5,315.6 849.5,360 859.1,360 859.1,425.4 849.5,425.4 849.5,435.6 848.6,435.6 
				848.6,425.4 839.1,425.4 839.1,360 848.6,360 			"/>
			<polygon class="st3" points="816.7,303.7 817.6,303.7 817.6,316.9 827.2,316.9 827.2,351.1 817.6,351.1 817.6,423.7 816.7,423.7 
				816.7,351.1 807.1,351.1 807.1,316.9 816.7,316.9 			"/>
			<text transform="matrix(1 0 0 1 807.1453 350.4541)" class="st4 st5">L</text>
			<polygon class="st2" points="784.8,233.1 785.7,233.1 785.7,313.2 795.2,313.2 795.2,316.1 785.7,316.1 785.7,353.1 784.8,353.1 
				784.8,316.1 775.2,316.1 775.2,313.2 784.8,313.2 			"/>
			<polygon class="st2" points="752.8,273.3 753.8,273.3 753.8,309.2 763.3,309.2 763.3,320.1 753.8,320.1 753.8,393.2 752.8,393.2 
				752.8,320.1 743.3,320.1 743.3,309.2 752.8,309.2 			"/>
			<polygon class="st2" points="720.9,315.6 721.9,315.6 721.9,349.6 731.4,349.6 731.4,374.9 721.9,374.9 721.9,435.6 720.9,435.6 
				720.9,374.9 711.4,374.9 711.4,349.6 720.9,349.6 			"/>
			<polygon class="st2" points="689,315.6 690,315.6 690,365.9 699.5,365.9 699.5,409.1 690,409.1 690,435.6 689,435.6 689,409.1 
				679.5,409.1 679.5,365.9 689,365.9 			"/>
			<polygon class="st2" points="657.1,394.4 658,394.4 658,449 667.6,449 667.6,459.9 658,459.9 658,514.4 657.1,514.4 657.1,459.9 
				647.6,459.9 647.6,449 657.1,449 			"/>
			<polygon class="st2" points="625.2,413 626.1,413 626.1,459.6 635.7,459.6 635.7,486.4 626.1,486.4 626.1,533 625.2,533 
				625.2,486.4 615.6,486.4 615.6,459.6 625.2,459.6 			"/>
			<polygon class="st2" points="593.3,394.4 594.2,394.4 594.2,435.8 603.7,435.8 603.7,440.3 594.2,440.3 594.2,514.4 593.3,514.4 
				593.3,440.3 583.7,440.3 583.7,435.8 593.3,435.8 			"/>
			<polygon class="st2" points="561.3,346.1 562.3,346.1 562.3,372.3 571.8,372.3 571.8,390.9 562.3,390.9 562.3,466.1 561.3,466.1 
				561.3,390.9 551.8,390.9 551.8,372.3 561.3,372.3 			"/>
			<polygon class="st2" points="529.4,389.2 530.4,389.2 530.4,416.5 539.9,416.5 539.9,453.7 530.4,453.7 530.4,509.2 529.4,509.2 
				529.4,453.7 519.9,453.7 519.9,416.5 529.4,416.5 			"/>
			<polygon class="st2" points="497.5,418.2 498.5,418.2 498.5,461.9 508,461.9 508,527.3 498.5,527.3 498.5,538.2 497.5,538.2 
				497.5,527.3 488,527.3 488,461.9 497.5,461.9 			"/>
			<polygon class="st2" points="465.6,361 466.5,361 466.5,415.5 476.1,415.5 476.1,426.4 466.5,426.4 466.5,480.9 465.6,480.9 
				465.6,426.4 456.1,426.4 456.1,415.5 465.6,415.5 			"/>
			<polygon class="st2" points="433.7,320.8 434.6,320.8 434.6,357.8 444.2,357.8 444.2,360.7 434.6,360.7 434.6,440.8 433.7,440.8 
				433.7,360.7 424.1,360.7 424.1,357.8 433.7,357.8 			"/>
			<polygon class="st2" points="401.8,355.8 402.7,355.8 402.7,406.8 412.2,406.8 412.2,435.1 402.7,435.1 402.7,475.7 401.8,475.7 
				401.8,435.1 392.2,435.1 392.2,406.8 401.8,406.8 			"/>
			<polygon class="st2" points="369.8,407.8 370.8,407.8 370.8,434.8 380.3,434.8 380.3,445.8 370.8,445.8 370.8,527.8 369.8,527.8 
				369.8,445.8 360.3,445.8 360.3,434.8 369.8,434.8 			"/>
			<polygon class="st2" points="337.9,414.5 338.9,414.5 338.9,447.7 348.4,447.7 348.4,481.9 338.9,481.9 338.9,534.5 337.9,534.5 
				337.9,481.9 328.4,481.9 328.4,447.7 337.9,447.7 			"/>
			<polygon class="st2" points="306,438.3 307,438.3 307,510.2 316.5,510.2 316.5,538.4 307,538.4 307,558.3 306,558.3 306,538.4 
				296.5,538.4 296.5,510.2 306,510.2 			"/>
			<polygon class="st2" points="274.1,394.4 275,394.4 275,492.8 284.6,492.8 284.6,503.7 275,503.7 275,514.4 274.1,514.4 
				274.1,503.7 264.6,503.7 264.6,492.8 274.1,492.8 			"/>
			<polygon class="st2" points="242.2,416.8 243.1,416.8 243.1,445.1 252.7,445.1 252.7,463.7 243.1,463.7 243.1,536.7 242.2,536.7 
				242.2,463.7 232.6,463.7 232.6,445.1 242.2,445.1 			"/>
			<polygon class="st2" points="210.3,343.9 211.2,343.9 211.2,409.8 220.7,409.8 220.7,447 211.2,447 211.2,463.8 210.3,463.8 
				210.3,447 200.7,447 200.7,409.8 210.3,409.8 			"/>
			<polygon class="st2" points="178.3,307.5 179.3,307.5 179.3,381.6 188.8,381.6 188.8,403.9 179.3,403.9 179.3,427.4 178.3,427.4 
				178.3,403.9 168.8,403.9 168.8,381.6 178.3,381.6 			"/>
			<polygon class="st2" points="146.4,394.4 147.4,394.4 147.4,481.2 156.9,481.2 156.9,485.7 147.4,485.7 147.4,514.4 146.4,514.4 
				146.4,485.7 136.9,485.7 136.9,481.2 146.4,481.2 			"/>
			<polygon class="st2" points="114.5,378.1 115.5,378.1 115.5,414.3 125,414.3 125,460.4 115.5,460.4 115.5,498 114.5,498 
				114.5,460.4 105,460.4 105,414.3 114.5,414.3 			"/>
			<polygon class="st2" points="82.6,411.5 83.5,411.5 83.5,443.3 93.1,443.3 93.1,465.6 83.5,465.6 83.5,531.5 82.6,531.5 
				82.6,465.6 73.1,465.6 73.1,443.3 82.6,443.3 			"/>
			<polygon class="st2" points="50.7,349.1 51.6,349.1 51.6,359.3 61.2,359.3 61.2,424.7 51.6,424.7 51.6,469 50.7,469 50.7,424.7 
				41.1,424.7 41.1,359.3 50.7,359.3 			"/>
			<polygon class="st2" points="9.2,312.4 18.7,312.4 18.7,248.7 19.7,248.7 19.7,312.4 29.2,312.4 29.2,343.6 19.7,343.6 
				19.7,368.7 18.7,368.7 18.7,343.6 9.2,343.6 			"/>
		</g>
		<g class="st1">
			<polygon class="st2" points="29.2,258.6 19.7,258.6 19.7,335.3 18.8,335.3 18.8,258.6 9.2,258.6 9.2,179 18.8,179 18.8,140.8 
				19.7,140.8 19.7,179 29.2,179 			"/>
			<polygon class="st2" points="51.6,278.7 50.7,278.7 50.7,229.6 41.1,229.6 41.1,207.9 50.7,207.9 50.7,84.2 51.6,84.2 
				51.6,207.9 61.2,207.9 61.2,229.6 51.6,229.6 			"/>
			<polygon class="st2" points="83.5,327.9 82.6,327.9 82.6,222.4 73.1,222.4 73.1,215.2 82.6,215.2 82.6,172.4 83.5,172.4 
				83.5,215.2 93.1,215.2 93.1,222.4 83.5,222.4 			"/>
			<polygon class="st2" points="115.5,291.9 114.5,291.9 114.5,253.7 105,253.7 105,183.8 114.5,183.8 114.5,97.5 115.5,97.5 
				115.5,183.8 125,183.8 125,253.7 115.5,253.7 			"/>
			<polygon class="st2" points="147.4,348.6 146.4,348.6 146.4,244.1 136.9,244.1 136.9,193.5 146.4,193.5 146.4,154.1 147.4,154.1 
				147.4,193.5 156.9,193.5 156.9,244.1 147.4,244.1 			"/>
			<polygon class="st2" points="179.3,338.7 178.3,338.7 178.3,294.1 168.8,294.1 168.8,290.5 178.3,290.5 178.3,195.3 179.3,195.3 
				179.3,290.5 188.8,290.5 188.8,294.1 179.3,294.1 			"/>
			<polygon class="st2" points="211.2,469.1 210.3,469.1 210.3,363.4 200.7,363.4 200.7,300.7 210.3,300.7 210.3,274.6 211.2,274.6 
				211.2,300.7 220.7,300.7 220.7,363.4 211.2,363.4 			"/>
			<polygon class="st2" points="243.1,448.6 242.2,448.6 242.2,347.1 232.6,347.1 232.6,317 242.2,317 242.2,283.1 243.1,283.1 
				243.1,317 252.7,317 252.7,347.1 243.1,347.1 			"/>
			<polygon class="st2" points="275,400.4 274.1,400.4 274.1,335.7 264.6,335.7 264.6,328.5 274.1,328.5 274.1,205.9 275,205.9 
				275,328.5 284.6,328.5 284.6,335.7 275,335.7 			"/>
			<polygon class="st2" points="307,346.1 306,346.1 306,304.4 296.5,304.4 296.5,236.9 306,236.9 306,151.7 307,151.7 307,236.9 
				316.5,236.9 316.5,304.4 307,304.4 			"/>
			<polygon class="st2" points="338.9,346.1 337.9,346.1 337.9,245.3 328.4,245.3 328.4,206.7 337.9,206.7 337.9,151.7 338.9,151.7 
				338.9,206.7 348.4,206.7 348.4,245.3 338.9,245.3 			"/>
			<polygon class="st2" points="370.8,290.7 369.8,290.7 369.8,243.7 360.3,243.7 360.3,107.1 369.8,107.1 369.8,96.2 370.8,96.2 
				370.8,107.1 380.3,107.1 380.3,243.7 370.8,243.7 			"/>
			<polygon class="st2" points="402.7,346.1 401.8,346.1 401.8,301.9 392.2,301.9 392.2,251.3 401.8,251.3 401.8,151.7 402.7,151.7 
				402.7,251.3 412.2,251.3 412.2,301.9 402.7,301.9 			"/>
			<polygon class="st2" points="434.6,371.5 433.7,371.5 433.7,288.7 424.1,288.7 424.1,209.1 433.7,209.1 433.7,177 434.6,177 
				434.6,209.1 444.1,209.1 444.1,288.7 434.6,288.7 			"/>
			<polygon class="st2" points="466.5,473.9 465.6,473.9 465.6,402 456.1,402 456.1,295.9 465.6,295.9 465.6,279.5 466.5,279.5 
				466.5,295.9 476.1,295.9 476.1,402 466.5,402 			"/>
			<polygon class="st2" points="498.5,493.2 497.5,493.2 497.5,471.9 488,471.9 488,416.5 497.5,416.5 497.5,298.7 498.5,298.7 
				498.5,416.5 508,416.5 508,471.9 498.5,471.9 			"/>
			<polygon class="st2" points="530.4,607.7 529.4,607.7 529.4,477.9 519.9,477.9 519.9,473.1 529.4,473.1 529.4,413.2 530.4,413.2 
				530.4,473.1 539.9,473.1 539.9,477.9 530.4,477.9 			"/>
			<polygon class="st2" points="562.3,542.6 561.3,542.6 561.3,484.3 551.8,484.3 551.8,466.7 561.3,466.7 561.3,348.2 562.3,348.2 
				562.3,466.7 571.8,466.7 571.8,484.3 562.3,484.3 			"/>
			<polygon class="st2" points="594.2,473.9 593.2,473.9 593.2,418.9 583.7,418.9 583.7,377.9 593.2,377.9 593.2,279.5 594.2,279.5 
				594.2,377.9 603.7,377.9 603.7,418.9 594.2,418.9 			"/>
			<polygon class="st2" points="626.1,473.9 625.2,473.9 625.2,392.3 615.6,392.3 615.6,322.4 625.2,322.4 625.2,279.5 626.1,279.5 
				626.1,322.4 635.6,322.4 635.6,392.3 626.1,392.3 			"/>
			<polygon class="st2" points="658,346.1 657.1,346.1 657.1,257.8 647.6,257.8 647.6,240.1 657.1,240.1 657.1,151.7 658,151.7 
				658,240.1 667.6,240.1 667.6,257.8 658,257.8 			"/>
			<polygon class="st2" points="690,316 689,316 689,240.5 679.5,240.5 679.5,197.1 689,197.1 689,121.6 690,121.6 690,197.1 
				699.5,197.1 699.5,240.5 690,240.5 			"/>
			<polygon class="st2" points="721.9,346.1 720.9,346.1 720.9,279 711.4,279 711.4,271.8 720.9,271.8 720.9,151.7 721.9,151.7 
				721.9,271.8 731.4,271.8 731.4,279 721.9,279 			"/>
			<polygon class="st2" points="753.8,424.5 752.8,424.5 752.8,382.1 743.3,382.1 743.3,352 752.8,352 752.8,230 753.8,230 
				753.8,352 763.3,352 763.3,382.1 753.8,382.1 			"/>
			<polygon class="st2" points="785.7,354.6 784.8,354.6 784.8,310.4 775.2,310.4 775.2,250.1 784.8,250.1 784.8,160.1 785.7,160.1 
				785.7,250.1 795.2,250.1 795.2,310.4 785.7,310.4 			"/>
			<polygon class="st2" points="817.6,307.6 816.7,307.6 816.7,236.9 807.1,236.9 807.1,130.8 816.7,130.8 816.7,113.1 817.6,113.1 
				817.6,130.8 827.1,130.8 827.1,236.9 817.6,236.9 			"/>
			<polygon class="st2" points="849.5,400.4 848.6,400.4 848.6,312 839.1,312 839.1,294.3 848.6,294.3 848.6,205.9 849.5,205.9 
				849.5,294.3 859.1,294.3 859.1,312 849.5,312 			"/>
			<polygon class="st2" points="881.5,465.5 880.5,465.5 880.5,405.6 871,405.6 871,400.8 880.5,400.8 880.5,271 881.5,271 
				881.5,400.8 891,400.8 891,405.6 881.5,405.6 			"/>
			<polygon class="st2" points="913.4,408.8 912.4,408.8 912.4,326.1 902.9,326.1 902.9,280.3 912.4,280.3 912.4,214.4 913.4,214.4 
				913.4,280.3 922.9,280.3 922.9,326.1 913.4,326.1 			"/>
			<polygon class="st2" points="945.3,324.4 944.3,324.4 944.3,280.7 934.8,280.7 934.8,263 944.3,263 944.3,130 945.3,130 
				945.3,263 954.8,263 954.8,280.7 945.3,280.7 			"/>
			<polygon class="st2" points="977.2,313.6 976.3,313.6 976.3,259.8 966.7,259.8 966.7,204.3 976.3,204.3 976.3,119.2 977.2,119.2 
				977.2,204.3 986.7,204.3 986.7,259.8 977.2,259.8 			"/>
			<polygon class="st2" points="1009.1,275 1008.2,275 1008.2,158.5 998.6,158.5 998.6,112.7 1008.2,112.7 1008.2,80.6 1009.1,80.6 
				1009.1,112.7 1018.6,112.7 1018.6,158.5 1009.1,158.5 			"/>
			<polygon class="st2" points="1041,346.1 1040.1,346.1 1040.1,186.6 1030.6,186.6 1030.6,169 1040.1,169 1040.1,151.7 1041,151.7 
				1041,169 1050.6,169 1050.6,186.6 1041,186.6 			"/>
			<polygon class="st2" points="1073,310 1072,310 1072,264 1062.5,264 1062.5,233.9 1072,233.9 1072,115.5 1073,115.5 1073,233.9 
				1082.5,233.9 1082.5,264 1073,264 			"/>
			<polygon class="st2" points="1104.9,428.1 1103.9,428.1 1103.9,321.2 1094.4,321.2 1094.4,261 1103.9,261 1103.9,233.6 
				1104.9,233.6 1104.9,261 1114.4,261 1114.4,321.2 1104.9,321.2 			"/>
			<polygon class="st2" points="1136.8,487.2 1135.8,487.2 1135.8,367 1126.3,367 1126.3,330.9 1135.8,330.9 1135.8,292.7 
				1136.8,292.7 1136.8,330.9 1146.3,330.9 1146.3,367 1136.8,367 			"/>
			<polygon class="st2" points="1168.7,346.1 1167.8,346.1 1167.8,205.5 1158.2,205.5 1158.2,198.3 1167.8,198.3 1167.8,151.7 
				1168.7,151.7 1168.7,198.3 1178.2,198.3 1178.2,205.5 1168.7,205.5 			"/>
			<polygon class="st2" points="1200.6,372.7 1199.7,372.7 1199.7,314 1190.1,314 1190.1,239.3 1199.7,239.3 1199.7,178.2 
				1200.6,178.2 1200.6,239.3 1210.1,239.3 1210.1,314 1200.6,314 			"/>
			<polygon class="st2" points="1232.5,318.4 1231.6,318.4 1231.6,267 1222.1,267 1222.1,230.8 1231.6,230.8 1231.6,124 1232.5,124 
				1232.5,230.8 1242.1,230.8 1242.1,267 1232.5,267 			"/>
			<polygon class="st2" points="1264.5,419.7 1263.5,419.7 1263.5,403.2 1254,403.2 1254,297.1 1263.5,297.1 1263.5,225.2 
				1264.5,225.2 1264.5,297.1 1274,297.1 1274,403.2 1264.5,403.2 			"/>
			<polygon class="st2" points="1305.9,479.1 1296.4,479.1 1296.4,582.4 1295.4,582.4 1295.4,479.1 1285.9,479.1 1285.9,428.5 
				1295.4,428.5 1295.4,387.9 1296.4,387.9 1296.4,428.5 1305.9,428.5 			"/>
		</g>
	</g>
	<g>
		<polygon class="st2" points="4,367.3 4,351.9 2.8,351.9 2.8,367.3 0,367.3 0,420 6.8,420 6.8,367.3 		"/>
		<polygon class="st2" points="17.4,401.4 17.4,386.1 16.1,386.1 16.1,401.4 13.3,401.4 13.3,454.2 20.1,454.2 20.1,401.4 		"/>
		<polygon class="st2" points="30.7,419.4 30.7,404.1 29.5,404.1 29.5,419.4 26.7,419.4 26.7,472.2 33.5,472.2 33.5,419.4 		"/>
		<polygon class="st2" points="44.1,399.6 44.1,384.3 42.8,384.3 42.8,399.6 40.1,399.6 40.1,452.4 46.8,452.4 46.8,399.6 		"/>
		<polygon class="st2" points="57.4,423 57.4,407.7 56.2,407.7 56.2,423 53.4,423 53.4,475.8 60.2,475.8 60.2,423 		"/>
		<polygon class="st2" points="70.8,446.4 70.8,431.1 69.5,431.1 69.5,446.4 66.8,446.4 66.8,499.2 73.5,499.2 73.5,446.4 		"/>
		<polygon class="st2" points="84.1,437.4 84.1,422.1 82.9,422.1 82.9,437.4 80.1,437.4 80.1,490.2 86.9,490.2 86.9,437.4 		"/>
		<polygon class="st2" points="97.5,447.6 97.5,440 96.2,440 96.2,447.6 93.5,447.6 93.5,474 100.2,474 100.2,447.6 		"/>
		<polygon class="st2" points="110.8,459.2 110.8,454.4 109.6,454.4 109.6,459.2 106.8,459.2 106.8,475.8 113.6,475.8 113.6,459.2 
					"/>
		<polygon class="st2" points="124.1,439.9 124.1,430.6 122.9,430.6 122.9,439.9 120.1,439.9 120.1,472.2 126.9,472.2 126.9,439.9 
					"/>
		<polygon class="st2" points="137.5,519.9 137.5,535.2 136.3,535.2 136.3,519.9 133.5,519.9 133.5,467.1 140.3,467.1 140.3,519.9 
					"/>
		<polygon class="st2" points="150.9,550 150.9,590.4 149.6,590.4 149.6,550 146.9,550 146.9,410.9 153.6,410.9 153.6,550 		"/>
		<polygon class="st2" points="164.2,479.3 164.2,494.6 163,494.6 163,479.3 160.2,479.3 160.2,426.5 167,426.5 167,479.3 		"/>
		<polygon class="st2" points="177.6,444.3 177.6,449.9 176.3,449.9 176.3,444.3 173.6,444.3 173.6,424.9 180.3,424.9 180.3,444.3 
					"/>
		<polygon class="st2" points="190.9,449 190.9,464.3 189.7,464.3 189.7,449 186.9,449 186.9,396.2 193.7,396.2 193.7,449 		"/>
		<polygon class="st2" points="204.3,434.6 204.3,449.9 203,449.9 203,434.6 200.3,434.6 200.3,381.8 207,381.8 207,434.6 		"/>
		<polygon class="st2" points="217.6,416.7 217.6,419 216.4,419 216.4,416.7 213.6,416.7 213.6,408.8 220.4,408.8 220.4,416.7 		"/>
		<polygon class="st2" points="231,445.4 231,460.7 229.7,460.7 229.7,445.4 227,445.4 227,392.6 233.7,392.6 233.7,445.4 		"/>
		<polygon class="st2" points="244.3,468.8 244.3,484.1 243.1,484.1 243.1,468.8 240.3,468.8 240.3,416 247.1,416 247.1,468.8 		"/>
		<polygon class="st2" points="257.7,486.8 257.7,502.1 256.4,502.1 256.4,486.8 253.7,486.8 253.7,434 260.4,434 260.4,486.8 		"/>
		<polygon class="st2" points="271,460.8 271,469.7 269.8,469.7 269.8,460.8 267,460.8 267,430.3 273.8,430.3 273.8,460.8 		"/>
		<polygon class="st2" points="284.4,431 284.4,446.3 283.1,446.3 283.1,431 280.4,431 280.4,378.2 287.1,378.2 287.1,431 		"/>
		<polygon class="st2" points="297.7,432.6 297.7,438.9 296.5,438.9 296.5,432.6 293.7,432.6 293.7,410.9 300.5,410.9 300.5,432.6 
					"/>
		<polygon class="st2" points="311.1,355.7 311.1,340.4 309.8,340.4 309.8,355.7 307.1,355.7 307.1,408.5 313.8,408.5 313.8,355.7 
					"/>
		<polygon class="st2" points="324.4,390.8 324.4,375.5 323.2,375.5 323.2,390.8 320.4,390.8 320.4,443.6 327.2,443.6 327.2,390.8 
					"/>
		<polygon class="st2" points="337.8,416 337.8,400.7 336.5,400.7 336.5,416 333.8,416 333.8,468.8 340.5,468.8 340.5,416 		"/>
		<polygon class="st2" points="351.1,387.2 351.1,371.9 349.9,371.9 349.9,387.2 347.1,387.2 347.1,440 353.9,440 353.9,387.2 		"/>
		<polygon class="st2" points="364.5,363.8 364.5,348.5 363.2,348.5 363.2,363.8 360.5,363.8 360.5,416.6 367.2,416.6 367.2,363.8 
					"/>
		<polygon class="st2" points="377.8,335.1 377.8,319.7 376.6,319.7 376.6,335.1 373.8,335.1 373.8,387.8 380.6,387.8 380.6,335.1 
					"/>
		<polygon class="st2" points="391.2,229.2 391.2,188.4 389.9,188.4 389.9,229.2 387.2,229.2 387.2,369.8 393.9,369.8 393.9,229.2 
					"/>
		<polygon class="st2" points="404.5,375 404.5,369.2 403.3,369.2 403.3,375 400.5,375 400.5,395 407.3,395 407.3,375 		"/>
		<polygon class="st2" points="417.9,331.5 417.9,316.1 416.6,316.1 416.6,331.5 413.9,331.5 413.9,384.2 420.6,384.2 420.6,331.5 
					"/>
		<polygon class="st2" points="431.2,328 431.2,323.9 430,323.9 430,328 427.2,328 427.2,341.9 434,341.9 434,328 		"/>
		<polygon class="st2" points="444.6,352.8 444.6,363.8 443.3,363.8 443.3,352.8 440.6,352.8 440.6,314.9 447.3,314.9 447.3,352.8 
					"/>
		<polygon class="st2" points="457.9,416.6 457.9,431.9 456.7,431.9 456.7,416.6 453.9,416.6 453.9,363.8 460.7,363.8 460.7,416.6 
					"/>
		<polygon class="st2" points="471.3,507.6 471.3,544.6 470,544.6 470,507.6 467.3,507.6 467.3,380 474,380 474,507.6 		"/>
		<polygon class="st2" points="484.6,411.2 484.6,426.5 483.4,426.5 483.4,411.2 480.6,411.2 480.6,358.4 487.4,358.4 487.4,411.2 
					"/>
		<polygon class="st2" points="498,434.6 498,449.9 496.7,449.9 496.7,434.6 494,434.6 494,381.8 500.7,381.8 500.7,434.6 		"/>
		<polygon class="st2" points="511.3,458.9 511.3,466.1 510.1,466.1 510.1,458.9 507.3,458.9 507.3,434 514.1,434 514.1,458.9 		"/>
		<polygon class="st2" points="524.7,373.7 524.7,358.4 523.4,358.4 523.4,373.7 520.7,373.7 520.7,426.5 527.5,426.5 527.5,373.7 
					"/>
		<polygon class="st2" points="538,353.9 538,338.6 536.8,338.6 536.8,353.9 534,353.9 534,406.7 540.8,406.7 540.8,353.9 		"/>
		<polygon class="st2" points="551.4,388.3 551.4,381.5 550.1,381.5 550.1,388.3 547.4,388.3 547.4,411.9 554.2,411.9 554.2,388.3 
					"/>
		<polygon class="st2" points="564.7,391.4 564.7,376.1 563.5,376.1 563.5,391.4 560.7,391.4 560.7,444.2 567.5,444.2 567.5,391.4 
					"/>
		<polygon class="st2" points="578.1,352.1 578.1,336.8 576.8,336.8 576.8,352.1 574.1,352.1 574.1,404.9 580.9,404.9 580.9,352.1 
					"/>
		<polygon class="st2" points="591.4,382.4 591.4,367.1 590.2,367.1 590.2,382.4 587.4,382.4 587.4,435.2 594.2,435.2 594.2,382.4 
					"/>
		<polygon class="st2" points="604.8,403.2 604.8,399.2 603.5,399.2 603.5,403.2 600.8,403.2 600.8,417.2 607.6,417.2 607.6,403.2 
					"/>
		<polygon class="st2" points="618.1,348.2 618.1,332.9 616.9,332.9 616.9,348.2 614.1,348.2 614.1,401 620.9,401 620.9,348.2 		"/>
		<polygon class="st2" points="631.5,330.2 631.5,314.9 630.2,314.9 630.2,330.2 627.5,330.2 627.5,383 634.3,383 634.3,330.2 		"/>
		<polygon class="st2" points="644.8,280.3 644.8,270.2 643.6,270.2 643.6,280.3 640.8,280.3 640.8,314.9 647.6,314.9 647.6,280.3 
					"/>
		<polygon class="st2" points="658.2,371.6 658.2,386.9 656.9,386.9 656.9,371.6 654.2,371.6 654.2,318.8 661,318.8 661,371.6 		"/>
		<polygon class="st2" points="671.6,407.6 671.6,422.9 670.3,422.9 670.3,407.6 667.5,407.6 667.5,354.8 674.3,354.8 674.3,407.6 
					"/>
		<polygon class="st2" points="684.9,414.8 684.9,430.1 683.6,430.1 683.6,414.8 680.9,414.8 680.9,362 687.7,362 687.7,414.8 		"/>
		<polygon class="st2" points="698.3,387.8 698.3,403.1 697,403.1 697,387.8 694.2,387.8 694.2,335 701,335 701,387.8 		"/>
		<polygon class="st2" points="711.6,346 711.6,340.4 710.3,340.4 710.3,346 707.6,346 707.6,365.3 714.4,365.3 714.4,346 		"/>
		<polygon class="st2" points="725,300 725,284.6 723.7,284.6 723.7,300 720.9,300 720.9,352.7 727.7,352.7 727.7,300 		"/>
		<polygon class="st2" points="738.3,323.3 738.3,308 737,308 737,323.3 734.3,323.3 734.3,376.1 741.1,376.1 741.1,323.3 		"/>
		<polygon class="st2" points="751.7,276.6 751.7,261.3 750.4,261.3 750.4,276.6 747.6,276.6 747.6,329.3 754.4,329.3 754.4,276.6 
					"/>
		<polygon class="st2" points="765,262.2 765,246.9 763.7,246.9 763.7,262.2 761,262.2 761,314.9 767.8,314.9 767.8,262.2 		"/>
		<polygon class="st2" points="778.4,297.8 778.4,282.5 777.1,282.5 777.1,297.8 774.3,297.8 774.3,350.6 781.1,350.6 781.1,297.8 
					"/>
		<polygon class="st2" points="791.7,315.8 791.7,300.5 790.4,300.5 790.4,315.8 787.7,315.8 787.7,368.6 794.5,368.6 794.5,315.8 
					"/>
		<polygon class="st2" points="805.1,272.6 805.1,257.3 803.8,257.3 803.8,272.6 801,272.6 801,325.4 807.8,325.4 807.8,272.6 		"/>
		<polygon class="st2" points="818.4,285.7 818.4,280.4 817.1,280.4 817.1,285.7 814.4,285.7 814.4,303.8 821.2,303.8 821.2,285.7 
					"/>
		<polygon class="st2" points="831.8,236.7 831.8,221.3 830.5,221.3 830.5,236.7 827.7,236.7 827.7,289.4 834.5,289.4 834.5,236.7 
					"/>
		<polygon class="st2" points="845.1,147.1 845.1,105.2 843.8,105.2 843.8,147.1 841.1,147.1 841.1,291.7 847.9,291.7 847.9,147.1 
					"/>
		<polygon class="st2" points="858.5,299.6 858.5,314.9 857.2,314.9 857.2,299.6 854.4,299.6 854.4,246.9 861.2,246.9 861.2,299.6 
					"/>
		<polygon class="st2" points="871.8,337.4 871.8,352.7 870.5,352.7 870.5,337.4 867.8,337.4 867.8,284.6 874.6,284.6 874.6,337.4 
					"/>
		<polygon class="st2" points="885.2,258.6 885.2,243.3 883.9,243.3 883.9,258.6 881.1,258.6 881.1,311.3 887.9,311.3 887.9,258.6 
					"/>
		<polygon class="st2" points="898.5,225.8 898.5,214.5 897.2,214.5 897.2,225.8 894.5,225.8 894.5,264.7 901.3,264.7 901.3,225.8 
					"/>
		<polygon class="st2" points="911.9,232.5 911.9,226.9 910.6,226.9 910.6,232.5 907.8,232.5 907.8,252 914.6,252 914.6,232.5 		"/>
		<polygon class="st2" points="925.2,206.1 925.2,199.3 923.9,199.3 923.9,206.1 921.2,206.1 921.2,229.8 928,229.8 928,206.1 		"/>
		<polygon class="st2" points="938.6,153.7 938.6,138.4 937.3,138.4 937.3,153.7 934.5,153.7 934.5,206.5 941.3,206.5 941.3,153.7 
					"/>
		<polygon class="st2" points="951.9,162.8 951.9,159 950.6,159 950.6,162.8 947.9,162.8 947.9,175.9 954.7,175.9 954.7,162.8 		"/>
		<polygon class="st2" points="965.3,153.7 965.3,138.4 964,138.4 964,153.7 961.2,153.7 961.2,206.5 968,206.5 968,153.7 		"/>
		<polygon class="st2" points="978.6,117.7 978.6,102.4 977.3,102.4 977.3,117.7 974.6,117.7 974.6,170.5 981.4,170.5 981.4,117.7 
					"/>
		<polygon class="st2" points="992,155.5 992,140.2 990.7,140.2 990.7,155.5 987.9,155.5 987.9,208.3 994.7,208.3 994.7,155.5 		"/>
		<polygon class="st2" points="1005.3,162.2 1005.3,154.6 1004,154.6 1004,162.2 1001.3,162.2 1001.3,188.6 1008.1,188.6 
			1008.1,162.2 		"/>
		<polygon class="st2" points="1018.7,243.9 1018.7,259.2 1017.4,259.2 1017.4,243.9 1014.6,243.9 1014.6,191.1 1021.4,191.1 
			1021.4,243.9 		"/>
		<polygon class="st2" points="1032,270.8 1032,286.2 1030.7,286.2 1030.7,270.8 1028,270.8 1028,218.1 1034.8,218.1 1034.8,270.8 
					"/>
		<polygon class="st2" points="1045.4,296 1045.4,311.3 1044.1,311.3 1044.1,296 1041.3,296 1041.3,243.3 1048.1,243.3 1048.1,296 
					"/>
		<polygon class="st2" points="1058.7,308.5 1058.7,314.9 1057.4,314.9 1057.4,308.5 1054.7,308.5 1054.7,286.2 1061.5,286.2 
			1061.5,308.5 		"/>
		<polygon class="st2" points="1072.1,283.4 1072.1,298.8 1070.8,298.8 1070.8,283.4 1068,283.4 1068,230.7 1074.8,230.7 
			1074.8,283.4 		"/>
		<polygon class="st2" points="1085.4,292.4 1085.4,307.7 1084.1,307.7 1084.1,292.4 1081.4,292.4 1081.4,239.7 1088.2,239.7 
			1088.2,292.4 		"/>
		<polygon class="st2" points="1098.8,209.2 1098.8,198.3 1097.5,198.3 1097.5,209.2 1094.7,209.2 1094.7,246.9 1101.5,246.9 
			1101.5,209.2 		"/>
		<polygon class="st2" points="1112.1,108.6 1112.1,71.2 1110.8,71.2 1110.8,108.6 1108.1,108.6 1108.1,237.6 1114.9,237.6 
			1114.9,108.6 		"/>
		<polygon class="st2" points="1125.5,152.1 1125.5,142.5 1124.2,142.5 1124.2,152.1 1121.4,152.1 1121.4,185.2 1128.2,185.2 
			1128.2,152.1 		"/>
		<polygon class="st2" points="1138.8,121.7 1138.8,106.4 1137.5,106.4 1137.5,121.7 1134.8,121.7 1134.8,174.5 1141.6,174.5 
			1141.6,121.7 		"/>
		<polygon class="st2" points="1152.2,112.5 1152.2,108.5 1150.9,108.5 1150.9,112.5 1148.1,112.5 1148.1,126 1154.9,126 
			1154.9,112.5 		"/>
		<polygon class="st2" points="1165.5,102.6 1165.5,87.3 1164.2,87.3 1164.2,102.6 1161.5,102.6 1161.5,155.4 1168.3,155.4 
			1168.3,102.6 		"/>
		<polygon class="st2" points="1178.9,111.5 1178.9,107.1 1177.6,107.1 1177.6,111.5 1174.8,111.5 1174.8,126.6 1181.6,126.6 
			1181.6,111.5 		"/>
		<polygon class="st2" points="1192.2,73.8 1192.2,58.5 1190.9,58.5 1190.9,73.8 1188.2,73.8 1188.2,126.6 1195,126.6 1195,73.8 		
			"/>
		<polygon class="st2" points="1205.6,48.6 1205.6,33.3 1204.3,33.3 1204.3,48.6 1201.5,48.6 1201.5,101.4 1208.3,101.4 
			1208.3,48.6 		"/>
		<polygon class="st2" points="1218.9,59.5 1218.9,50.6 1217.6,50.6 1217.6,59.5 1214.9,59.5 1214.9,90 1221.7,90 1221.7,59.5 		"/>
		<polygon class="st2" points="1232.3,125.8 1232.3,135 1231,135 1231,125.8 1228.2,125.8 1228.2,93.9 1235,93.9 1235,125.8 		"/>
		<polygon class="st2" points="1245.6,146.7 1245.6,162 1244.4,162 1244.4,146.7 1241.6,146.7 1241.6,93.9 1248.4,93.9 
			1248.4,146.7 		"/>
		<polygon class="st2" points="1259,98.6 1259,104.2 1257.7,104.2 1257.7,98.6 1254.9,98.6 1254.9,79.5 1261.7,79.5 1261.7,98.6 		
			"/>
		<polygon class="st2" points="1272.3,74.7 1272.3,59.4 1271,59.4 1271,74.7 1268.3,74.7 1268.3,127.5 1275.1,127.5 1275.1,74.7 		
			"/>
		<polygon class="st2" points="1285.7,75.4 1285.7,72 1284.4,72 1284.4,75.4 1281.6,75.4 1281.6,87.3 1288.4,87.3 1288.4,75.4 		"/>
		<polygon class="st2" points="1299,51.3 1299,36 1297.7,36 1297.7,51.3 1295,51.3 1295,104.1 1301.8,104.1 1301.8,51.3 		"/>
		<polygon class="st2" points="1312.4,15.3 1312.4,0 1311.1,0 1311.1,15.3 1308.3,15.3 1308.3,68.1 1315.1,68.1 1315.1,15.3 		"/>
	</g>
</g>
</svg>
